<svg width="90" height="48" viewBox="0 0 90 48" fill="none" xmlns="http://www.w3.org/2000/svg">
<g clip-path="url(#clip0_29_5703)">
<path fill-rule="evenodd" clip-rule="evenodd" d="M70.1049 0.457173C70.1049 0.590182 69.7926 0.699001 69.4109 0.699001C69.0292 0.699001 68.7169 0.807831 68.7169 0.940839C68.7169 1.07385 68.5087 1.18267 68.2544 1.18267C67.946 1.18267 67.7917 1.34398 67.7917 1.66633C67.7917 1.9413 67.6374 2.15001 67.4343 2.15001C66.9714 2.15001 65.9411 3.22714 65.9411 3.71105C65.9411 3.91661 65.837 4.08469 65.7098 4.08469C65.5826 4.08469 65.4785 4.51999 65.4785 5.05203C65.4785 5.58407 65.3744 6.01937 65.2472 6.01937C65.0977 6.01937 65.0159 8.84083 65.0159 14C65.0159 19.159 65.0977 21.9805 65.2472 21.9805C65.3744 21.9805 65.4785 22.3069 65.4785 22.7059C65.4785 23.105 65.5826 23.4315 65.7098 23.4315C65.837 23.4315 65.9411 23.5976 65.9411 23.8005C65.9411 24.2806 67.9048 26.3335 68.364 26.3335C68.5581 26.3335 68.7169 26.4424 68.7169 26.5753C68.7169 26.7083 68.9251 26.8172 69.1796 26.8172C69.4341 26.8172 69.6423 26.926 69.6423 27.059C69.6423 27.192 70.1628 27.3008 70.7989 27.3008C71.435 27.3008 71.9554 27.4096 71.9554 27.5427C71.9554 27.6994 74.9296 27.7845 80.4155 27.7845C87.4387 27.7845 88.9313 27.7257 89.2052 27.4389C89.668 26.9555 89.668 23.2931 89.2052 22.8097C88.9313 22.5227 87.4212 22.4641 80.2833 22.4641C71.2509 22.4641 71.0302 22.4385 71.0302 21.3931C71.0302 21.1841 70.9261 21.0132 70.7989 21.0132C70.6617 21.0132 70.5675 20.1263 70.5675 18.8366V16.6601H79.721C87.3463 16.6601 88.9297 16.6023 89.2052 16.3145C89.4721 16.0357 89.5358 14.9189 89.5358 10.5105C89.5358 7.03265 89.4521 5.05203 89.3048 5.05203C89.1774 5.05203 89.073 4.83438 89.073 4.56837C89.073 4.30234 88.9695 4.08469 88.8421 4.08469C88.7146 4.08469 88.6103 3.91661 88.6103 3.71105C88.6103 3.25399 87.5908 2.15001 87.1687 2.15001C86.9998 2.15001 86.7123 1.93236 86.5283 1.66633C86.3452 1.40032 86.0098 1.18267 85.7837 1.18267C85.5575 1.18267 85.3719 1.07385 85.3719 0.940839C85.3719 0.807831 85.164 0.699001 84.9091 0.699001C84.6551 0.699001 84.4464 0.590182 84.4464 0.457173C84.4464 0.30119 81.9025 0.215332 77.2759 0.215332C72.6495 0.215332 70.1049 0.30119 70.1049 0.457173ZM72.4181 5.29386C72.4181 5.42687 72.2546 5.5357 72.0547 5.5357C71.5872 5.5357 71.0302 6.11803 71.0302 6.60677C71.0302 6.81573 70.9261 6.9867 70.7989 6.9867C70.6617 6.9867 70.5675 7.87352 70.5675 9.16323V11.3397H77.2759H83.9844V8.78331C83.9844 5.99495 83.8068 5.5357 82.7284 5.5357C82.4011 5.5357 82.1335 5.42687 82.1335 5.29386C82.1335 5.1403 80.3598 5.05203 77.2759 5.05203C74.1917 5.05203 72.4181 5.1403 72.4181 5.29386Z" fill="#0A0A0A"/>
<path fill-rule="evenodd" clip-rule="evenodd" d="M2.19896 2.63368V5.05203H10.6586C19.8263 5.05203 19.7793 5.04526 19.7793 6.36495C19.7793 6.70691 19.8834 6.98671 20.0107 6.98671C20.1478 6.98671 20.242 7.87352 20.242 9.16326V11.3397H12.8398C8.059 11.3397 5.43745 11.4253 5.43745 11.5816C5.43745 11.7145 5.02108 11.8234 4.51217 11.8234C4.00326 11.8234 3.58688 11.9322 3.58688 12.0653C3.58688 12.1982 3.32201 12.3071 2.99816 12.3071C2.34885 12.3071 1.27367 13.2805 1.27367 13.8681C1.27367 14.0737 1.16957 14.2417 1.04234 14.2417C0.915118 14.2417 0.811029 14.4594 0.811029 14.7254C0.811029 14.9914 0.706935 15.2091 0.579709 15.2091C0.433976 15.2091 0.348389 16.8214 0.348389 19.5621C0.348389 22.3029 0.433976 23.9152 0.579709 23.9152C0.706935 23.9152 0.811029 24.0813 0.811029 24.2842C0.811029 24.9079 2.81173 26.8172 3.46521 26.8172C3.78652 26.8172 4.04952 26.926 4.04952 27.059C4.04952 27.1935 4.66646 27.3009 5.43745 27.3009C6.20844 27.3009 6.82537 27.4082 6.82537 27.5427C6.82537 27.6999 10.0308 27.7845 15.979 27.7845C23.6038 27.7845 25.1878 27.7267 25.4632 27.4389C25.7398 27.1499 25.7937 25.334 25.7937 16.3145C25.7937 9.2899 25.7132 5.5357 25.5623 5.5357C25.4351 5.5357 25.331 5.12435 25.331 4.62181C25.331 3.9853 25.1906 3.60199 24.8684 3.35919C24.614 3.16741 24.4058 2.817 24.4058 2.58024C24.4058 2.32897 24.2345 2.15 23.9943 2.15C23.7677 2.15 23.4326 1.93236 23.2492 1.66634C23.0657 1.40032 22.7305 1.18267 22.5041 1.18267C22.2779 1.18267 22.0925 1.07385 22.0925 0.940844C22.0925 0.807828 21.8844 0.699001 21.6299 0.699001C21.3755 0.699001 21.1673 0.590182 21.1673 0.457173C21.1673 0.29998 17.8517 0.215332 11.6831 0.215332H2.19896V2.63368ZM6.42057 17.2708C5.98221 17.7605 5.90009 18.122 5.90009 19.5645C5.90009 21.0603 5.97203 21.3521 6.46799 21.8705L7.03564 22.4641H13.6389H20.242V19.5621V16.6601L13.5915 16.6749L6.94103 16.6896L6.42057 17.2708Z" fill="#0A0A0A"/>
<path d="M43.66 11.446H44.0582V11.046V5.63062V0.615234H45.6361H47.2141V5.87677V11.5383V11.9383H47.6123H52.7999H57.5892V13.5075V15.0768H52.7999H47.6123H47.2141V15.4768V21.6306V27.3845H45.6361H44.0582V21.6306V15.4768V15.0768H43.66H38.4724H33.6831V13.6131C33.6831 12.9768 33.7103 12.5084 33.7631 12.177C33.8187 11.8289 33.8916 11.7095 33.9173 11.6828C33.9189 11.6819 33.9605 11.6499 34.1144 11.6139C34.2809 11.5751 34.5335 11.5416 34.9163 11.5156C35.6798 11.4639 36.8929 11.446 38.8255 11.446H43.66Z" fill="#AB1A2D" stroke="#A10022"/>
</g>
<path d="M7.22559 37.3232V40.0918C7.12142 40.2253 6.95703 40.3701 6.73242 40.5264C6.51107 40.6826 6.22135 40.8177 5.86328 40.9316C5.50521 41.0423 5.06576 41.0977 4.54492 41.0977C4.09245 41.0977 3.67904 41.0228 3.30469 40.873C2.93034 40.7201 2.60807 40.4971 2.33789 40.2041C2.06771 39.9111 1.85938 39.5531 1.71289 39.1299C1.56641 38.7067 1.49316 38.2233 1.49316 37.6797V37.2109C1.49316 36.6673 1.56152 36.1839 1.69824 35.7607C1.83822 35.3376 2.03678 34.9795 2.29395 34.6865C2.55436 34.3936 2.86523 34.1706 3.22656 34.0176C3.59115 33.8646 3.99805 33.7881 4.44727 33.7881C5.04948 33.7881 5.54427 33.8874 5.93164 34.0859C6.32227 34.2845 6.62174 34.5579 6.83008 34.9062C7.03841 35.2513 7.16862 35.6484 7.2207 36.0977H5.91211C5.8763 35.8503 5.80469 35.6338 5.69727 35.4482C5.58984 35.2594 5.43685 35.113 5.23828 35.0088C5.04297 34.9014 4.78906 34.8477 4.47656 34.8477C4.21289 34.8477 3.98014 34.8997 3.77832 35.0039C3.5765 35.1081 3.40723 35.2594 3.27051 35.458C3.13379 35.6566 3.02962 35.9023 2.95801 36.1953C2.88965 36.4883 2.85547 36.8236 2.85547 37.2012V37.6797C2.85547 38.0605 2.89453 38.3991 2.97266 38.6953C3.05078 38.9883 3.16309 39.2357 3.30957 39.4375C3.45931 39.6361 3.64323 39.7874 3.86133 39.8916C4.08268 39.9925 4.33333 40.043 4.61328 40.043C4.86719 40.043 5.07715 40.0218 5.24316 39.9795C5.41243 39.9339 5.54753 39.8802 5.64844 39.8184C5.74935 39.7565 5.82747 39.6963 5.88281 39.6377V38.3047H4.47168V37.3232H7.22559ZM18.6223 34.9697L16.5959 41H15.175L17.8313 33.8906H18.7395L18.6223 34.9697ZM20.3166 41L18.2805 34.9697L18.1584 33.8906H19.0715L21.7424 41H20.3166ZM20.2238 38.3584V39.418H16.4104V38.3584H20.2238ZM30.3607 33.8906H31.5229L33.4662 39.2422L35.4047 33.8906H36.5717L33.9301 41H32.9975L30.3607 33.8906ZM29.7748 33.8906H30.9125L31.1176 38.8076V41H29.7748V33.8906ZM36.015 33.8906H37.1576V41H35.8148V38.8076L36.015 33.8906ZM50.5367 39.9453V41H46.7574V39.9453H50.5367ZM47.1676 33.8906V41H45.8248V33.8906H47.1676ZM50.0436 36.8252V37.8555H46.7574V36.8252H50.0436ZM50.5221 33.8906V34.9502H46.7574V33.8906H50.5221ZM74.3164 37.2646V37.6309C74.3164 38.168 74.2448 38.6514 74.1016 39.0811C73.9583 39.5075 73.7549 39.8704 73.4912 40.1699C73.2275 40.4694 72.9134 40.6989 72.5488 40.8584C72.1842 41.0179 71.779 41.0977 71.333 41.0977C70.8936 41.0977 70.4899 41.0179 70.1221 40.8584C69.7575 40.6989 69.4417 40.4694 69.1748 40.1699C68.9079 39.8704 68.7012 39.5075 68.5547 39.0811C68.4082 38.6514 68.335 38.168 68.335 37.6309V37.2646C68.335 36.7243 68.4082 36.2409 68.5547 35.8145C68.7012 35.388 68.9062 35.0251 69.1699 34.7256C69.4336 34.4229 69.7477 34.1917 70.1123 34.0322C70.4801 33.8727 70.8838 33.793 71.3232 33.793C71.7692 33.793 72.1745 33.8727 72.5391 34.0322C72.9036 34.1917 73.2178 34.4229 73.4814 34.7256C73.7484 35.0251 73.9535 35.388 74.0967 35.8145C74.2432 36.2409 74.3164 36.7243 74.3164 37.2646ZM72.959 37.6309V37.2549C72.959 36.8675 72.9232 36.5273 72.8516 36.2344C72.7799 35.9382 72.6742 35.6891 72.5342 35.4873C72.3942 35.2855 72.2217 35.1341 72.0166 35.0332C71.8115 34.929 71.5804 34.877 71.3232 34.877C71.0628 34.877 70.8317 34.929 70.6299 35.0332C70.4313 35.1341 70.262 35.2855 70.1221 35.4873C69.9821 35.6891 69.8747 35.9382 69.7998 36.2344C69.7282 36.5273 69.6924 36.8675 69.6924 37.2549V37.6309C69.6924 38.015 69.7282 38.3551 69.7998 38.6514C69.8747 38.9476 69.9821 39.1982 70.1221 39.4033C70.2653 39.6051 70.4378 39.7581 70.6396 39.8623C70.8415 39.9665 71.0726 40.0186 71.333 40.0186C71.5934 40.0186 71.8245 39.9665 72.0264 39.8623C72.2282 39.7581 72.3975 39.6051 72.5342 39.4033C72.6742 39.1982 72.7799 38.9476 72.8516 38.6514C72.9232 38.3551 72.959 38.015 72.959 37.6309ZM88.467 33.8906V41H87.1193L84.0969 36.0684V41H82.7541V33.8906H84.0969L87.1291 38.8271V33.8906H88.467Z" fill="#0A0A0A"/>
<defs>
<clipPath id="clip0_29_5703">
<rect width="90" height="28" fill="white"/>
</clipPath>
</defs>
</svg>
